<?xml version="1.0" encoding="utf-8"?>
<!-- Generator: Adobe Illustrator 19.1.0, SVG Export Plug-In . SVG Version: 6.00 Build 0)  -->
<svg version="1.1" id="Layer_1" xmlns="http://www.w3.org/2000/svg" xmlns:xlink="http://www.w3.org/1999/xlink" x="0px" y="0px"
	 viewBox="0 0 1199.5 497.2" style="enable-background:new 0 0 1199.5 497.2;" xml:space="preserve">
<style type="text/css">
	.st0{fill:#231F20;}
	.st1{fill:#F2623E;}
	.st2{fill:#00405D;}
</style>
<path class="st0" d="M97.9,495.6H76.5L68,473.4H29l-8.1,22.2H0L38,398h20.8L97.9,495.6z M61.6,456.9l-13.4-36.2L35,456.9H61.6z"/>
<path class="st0" d="M106.9,495.6v-96.8h19.7v80.4h49v16.4H106.9z"/>
<path class="st0" d="M188.2,495.6v-96.8h19.7v80.4h49v16.4H188.2z"/>
<path class="st0" d="M296.9,495.6V398h19.7v97.6H296.9z"/>
<path class="st0" d="M333.5,495.6V398h19.2l39.9,65.2V398H411v97.6h-19.8l-39.3-63.6v63.6H333.5z"/>
<path class="st0" d="M456.8,447.3c0-9.9,1.5-18.3,4.5-25c2.2-5,5.2-9.4,9.1-13.4c3.8-3.9,8-6.9,12.6-8.8c6.1-2.6,13.1-3.9,21-3.9
	c14.4,0,25.9,4.5,34.5,13.4c8.6,8.9,12.9,21.3,12.9,37.2c0,15.8-4.3,28.1-12.9,37c-8.6,8.9-20,13.3-34.3,13.3
	c-14.5,0-26.1-4.4-34.6-13.3C461.1,475.1,456.8,462.9,456.8,447.3z M477.2,446.7c0,11,2.5,19.4,7.7,25.1c5.1,5.7,11.6,8.6,19.4,8.6
	c7.9,0,14.3-2.8,19.3-8.5c5-5.7,7.6-14.1,7.6-25.5c0-11.2-2.5-19.5-7.4-25c-4.9-5.5-11.4-8.3-19.5-8.3c-8.1,0-14.7,2.8-19.6,8.4
	C479.6,427.1,477.2,435.5,477.2,446.7z"/>
<path class="st0" d="M565.1,495.6V398h19.2l39.9,65.2V398h18.3v97.6h-19.8l-39.3-63.6v63.6H565.1z"/>
<path class="st0" d="M661.3,495.6V398h72.4v16.5H681v21.6h49v16.4h-49v26.6h54.5v16.4H661.3z"/>
<path class="st1" d="M1191.8,73.5c-5.3-13.6-12.7-25.5-22.3-35.5c-9.6-10-21-17.9-34.4-23.5c-13.4-5.6-28.1-8.5-44.2-8.5H899.5v86.1
	L992.6,347h15.9V237h82.3c16.1,0,30.9-2.8,44.3-8.5c13.4-5.6,24.9-13.5,34.5-23.6c9.6-10.1,16.8-22,22.2-35.7
	c5.3-13.7,7.7-28.6,7.7-44.8v-6.3C1199.5,102,1197.1,87.1,1191.8,73.5z M1088.5,124c0,10.2-2.7,18.1-8.4,24.1
	c-5.7,6.1-14.2,8.9-25.8,8.9h-45.7V87h45.7c11.9,0,20.5,2.9,26.1,8.9c5.6,6,8.2,14,8.2,24.2V124z"/>
<path class="st2" d="M587.4,204.3c11-4,20.6-9.3,28.8-15.9c8.2-6.5,15.1-13.9,20.6-22.2c5.5-8.2,9.6-17.1,12.3-26.5
	c2.7-9.4,4.1-19.2,4.1-29.2c0-13.9-2.4-27.1-7.3-39.7c-4.8-12.6-12.1-23.7-21.8-33.3c-9.7-9.6-21.7-17.3-36.1-23
	c-14.4-5.7-31-8.6-49.9-8.6H343.8c2,1,3.9,2.3,5.7,3.5c16,10.1,29,23.2,38.5,38.9c9.8,16,14.9,35.2,15.3,56.7l0,24.9h-71.1
	c1.2,0,2.4,0.8,3.6,1.2c13.7,5.2,26.3,12.1,37.2,20.6c11.5,9,21,20.2,28.1,33.3c7.3,13.5,11.2,29.8,11.6,48.6
	c0,24.4-4.5,45.5-13.4,63.1c-8.9,17.8-21.5,32.4-37.5,43.8c-3.2,2.3-6.5,4.4-10,6.4h86.4V223h41.2l60.5,124h36.1l35.4-96.9
	L587.4,204.3z M539.2,127.8c-1.6,3.9-3.8,7.2-6.7,10c-2.8,2.8-6.1,5.1-9.8,6.7c-3.7,1.6-7.7,2.4-11.9,2.4h-72.4V84h72.4
	c4.2,0,8.1,0.8,11.9,2.3c3.7,1.5,7,3.7,9.8,6.4c2.8,2.7,5,6.1,6.7,9.9c1.6,3.9,2.4,8.1,2.4,12.6C541.7,119.8,540.8,124,539.2,127.8z
	"/>
<path class="st2" d="M71.7,300.6c-10-18.4-15.2-41.6-15.2-68.8V213h61v-5.9c-6-3.6-11.9-7.7-17.2-12.1
	c-11.4-9.5-20.7-21.4-27.6-35.2c-7-14.1-10.6-31.1-10.6-50.6c0-23.2,5.3-43.5,15.4-60.3c9.9-16.4,22.9-29.8,39.9-40V6H7.5v341h110
	v-0.2c-1-0.6-2.4-1.3-3.5-1.9C96.1,334.1,81.8,319.2,71.7,300.6z"/>
<path class="st2" d="M351.2,325.5c13.5-9.6,24-21.9,31.6-37c7.6-15.1,11.4-33.2,11.4-54.4c-0.3-15.8-3.4-29.2-9.3-40.1
	c-5.9-10.9-13.6-20.1-23.1-27.5c-9.5-7.4-20.3-13.4-32.3-17.9c-12-4.5-24.3-8.3-36.8-11.4c-12.5-3.1-24.7-5.7-36.7-7.9
	c-11.9-2.2-22.6-4.6-32-7.3c-9.4-2.7-16.9-5.9-22.6-9.8c-5.7-3.9-8.6-9-8.6-15.5c0-6,3.8-11.2,11.3-15.6c7.5-4.4,18.8-6.7,34-6.7
	c7.9,0,14.6,1,20.2,2.9c5.6,1.9,10.1,4.5,13.7,7.7c3.5,3.2,6.4,6.9,8,11c1.6,4.1,2.6,8.4,2.6,13v1.8h102v-5.7
	c0-18.2-4.4-34-12.5-47.2c-8.1-13.2-18.9-24.2-32.5-32.8c-13.6-8.6-29.5-15-47.7-19.1c-18.2-4.1-37.5-6.2-58-6.2
	c-20.2,0-39.5,2-58,5.9c-18.5,4-34.7,10.3-48.8,18.9c-14,8.6-25.3,19.9-33.7,33.8c-8.4,13.9-12.6,30.8-12.6,50.6
	c0,16.6,2.9,30.7,8.6,42.2c5.7,11.5,13.3,21.3,22.8,29.2c9.4,7.9,20.2,14.3,32.3,19.2c12.1,4.9,24.4,9,36.9,12.2
	c12.5,3.2,24.8,6,36.9,8.2c12.1,2.3,22.9,4.7,32.3,7.4c9.4,2.7,17,5.9,22.8,9.6c5.7,3.7,8.6,8.6,8.6,14.8c0,5.3-1.6,9.5-4.7,12.6
	c-3.1,3.1-7.1,5.3-11.9,6.8c-4.8,1.5-10,2.4-15.6,2.8c-5.7,0.4-11,0.6-16,0.6c-8.4,0-16-0.5-22.8-1.6c-6.8-1-12.6-3.1-17.3-6.3
	c-4.8-3.1-8.4-7.4-11-12.9c-2.6-5.6-3.9-13-3.9-22H75.3c0,24,4.3,44,12.8,59.8c8.6,15.7,20.4,28.1,35.5,37.2
	c15.1,9.1,32.9,15.4,53.5,19c20.6,3.5,42.8,5.3,66.7,5.3c21.5,0,41.4-2.2,59.7-6.7C321.8,342.2,337.7,335.1,351.2,325.5z"/>
<polygon class="st1" points="848.3,6 720.9,6 596.2,347 663.2,347 720.8,347 735.3,311 758.5,311 758.5,223 733.5,223 784.5,90.9 
	835.5,223 810.5,223 810.5,311 829.8,311 844.3,347 899.5,347 972.7,347 "/>
</svg>
