<?xml version="1.0" encoding="utf-8"?>
<!-- Generator: Adobe Illustrator 19.1.0, SVG Export Plug-In . SVG Version: 6.00 Build 0)  -->
<svg version="1.1" id="Layer_1" xmlns="http://www.w3.org/2000/svg" xmlns:xlink="http://www.w3.org/1999/xlink" x="0px" y="0px"
	 viewBox="0 0 1200 497.2" style="enable-background:new 0 0 1200 497.2;" xml:space="preserve">
<style type="text/css">
	.st0{fill:#231F20;}
	.st1{fill:#F2623E;}
	.st2{fill:#00405D;}
</style>
<g>
	<g>
		<path class="st0" d="M97.9,495.6H76.5L68,473.4H29l-8.1,22.2H0L38,398h20.8L97.9,495.6z M61.6,456.9l-13.4-36.2L35,456.9H61.6z"/>
		<path class="st0" d="M106.9,495.6v-96.8h19.7v80.4h49v16.4H106.9z"/>
		<path class="st0" d="M188.2,495.6v-96.8h19.7v80.4h49v16.4H188.2z"/>
		<path class="st0" d="M296.9,495.6V398h19.7v97.6H296.9z"/>
		<path class="st0" d="M333.5,495.6V398h19.2l39.9,65.2V398H411v97.6h-19.8l-39.3-63.6v63.6H333.5z"/>
		<path class="st0" d="M456.8,447.3c0-9.9,1.5-18.3,4.5-25c2.2-5,5.2-9.4,9.1-13.4c3.8-3.9,8-6.9,12.6-8.8c6.1-2.6,13.1-3.9,21-3.9
			c14.4,0,25.9,4.5,34.5,13.4c8.6,8.9,12.9,21.3,12.9,37.2c0,15.8-4.3,28.1-12.9,37c-8.6,8.9-20,13.3-34.3,13.3
			c-14.5,0-26.1-4.4-34.6-13.3C461.1,475.1,456.8,462.9,456.8,447.3z M477.2,446.7c0,11,2.5,19.4,7.7,25.1
			c5.1,5.7,11.6,8.6,19.4,8.6c7.9,0,14.3-2.8,19.3-8.5c5-5.7,7.6-14.1,7.6-25.5c0-11.2-2.5-19.5-7.4-25c-4.9-5.5-11.4-8.3-19.5-8.3
			c-8.1,0-14.7,2.8-19.6,8.4C479.6,427.1,477.2,435.5,477.2,446.7z"/>
		<path class="st0" d="M565.1,495.6V398h19.2l39.9,65.2V398h18.3v97.6h-19.8l-39.3-63.6v63.6H565.1z"/>
		<path class="st0" d="M661.3,495.6V398h72.4v16.5H681v21.6h49v16.4h-49v26.6h54.5v16.4H661.3z"/>
	</g>
	<g>
		<path class="st1" d="M1192,73.5c-5.3-13.6-12.8-25.5-22.4-35.5c-9.6-10-21.1-18.1-34.5-23.7c-13.4-5.6-28.2-8.7-44.3-8.7H900v86.5
			l92.6,254.5h16.4v-110h81.8c16.1,0,30.9-2.6,44.3-8.2c13.4-5.6,24.9-13.4,34.5-23.5c9.6-10.1,17.1-21.9,22.4-35.7
			c5.3-13.7,8-28.6,8-44.7v-6.3C1200,102,1197.3,87.1,1192,73.5z M1089,124c0,10.2-2.9,17.9-8.7,23.9c-5.7,6.1-14.5,8.7-26.1,8.7
			H1009v-70h45.3c11.9,0,20.8,3.2,26.3,9.1c5.6,6,8.4,14.2,8.4,24.4V124z"/>
		<path class="st2" d="M587.4,204.3c11-4,20.6-9.3,28.8-15.9c8.2-6.5,15.1-13.9,20.6-22.2c5.5-8.2,9.6-17.1,12.3-26.5
			c2.7-9.4,4.1-19.2,4.1-29.2c0-13.9-2.4-27.1-7.3-39.7c-4.8-12.6-12.1-23.7-21.8-33.3c-9.7-9.6-21.7-17.5-36.1-23.2
			c-14.4-5.7-31-8.8-49.9-8.8H343.8c2,1,3.9,2.5,5.7,3.7c16,10.1,29,23.3,38.5,39c9.8,16,14.9,35,15.3,56.5l0,24.8h-71.1
			c1.2,0,2.4,1,3.6,1.5c13.7,5.2,26.3,12.2,37.2,20.7c11.5,9,21,20.2,28.1,33.4c7.3,13.5,11.2,29.8,11.6,48.6
			c0,24.4-4.5,45.5-13.4,63.1c-8.9,17.8-21.5,32.2-37.5,43.6c-3.2,2.3-6.5,4.1-10,6.1H439v-124h40.7l60.5,124h36.1l35.4-96.6
			L587.4,204.3z M539.2,127.8c-1.6,3.9-3.8,7.2-6.7,10c-2.8,2.8-6.1,4.9-9.8,6.5c-3.7,1.6-7.7,2.2-11.9,2.2H439v-63h71.9
			c4.2,0,8.1,1,11.9,2.5c3.7,1.5,7,3.8,9.8,6.5c2.8,2.7,5,6.1,6.7,10c1.6,3.9,2.4,8.1,2.4,12.6C541.7,119.7,540.8,124,539.2,127.8z"
			/>
		<path class="st2" d="M71.9,300.6C61.9,282.1,57,259,57,231.7v-19.1h61v-5.5c-6-3.6-12.1-7.7-17.4-12.1
			c-11.4-9.5-20.8-21.4-27.7-35.2c-7-14.1-10.6-31.1-10.6-50.6c0-23.2,5.5-43.5,15.6-60.3C87.8,32.6,101,19.1,118,9V5.6H8v341h110
			v0.3c-1-0.6-2.5-1.3-3.6-1.9C96.5,334.1,82,319.2,71.9,300.6z"/>
		<path class="st2" d="M351.2,325.5c13.5-9.6,24-21.9,31.6-37c7.6-15.1,11.4-33.2,11.4-54.4c-0.3-15.8-3.4-29.2-9.3-40.1
			c-5.9-10.9-13.6-20.1-23.1-27.5c-9.5-7.4-20.3-13.4-32.3-17.9c-12-4.5-24.3-8.3-36.8-11.4c-12.5-3.1-24.7-5.7-36.7-7.9
			c-11.9-2.2-22.6-4.6-32-7.3c-9.4-2.7-16.9-5.9-22.6-9.8c-5.7-3.9-8.6-9-8.6-15.5c0-6,3.8-11.2,11.3-15.6c7.5-4.4,18.8-6.7,34-6.7
			c7.9,0,14.6,1,20.2,2.9c5.6,1.9,10.1,4.5,13.7,7.7c3.5,3.2,6.6,6.9,8.2,11c1.6,4.1,2.9,8.4,2.9,13v1.4h102v-5.3
			c0-18.2-4.7-34-12.7-47.2c-8.1-13.2-19-24.2-32.6-32.8c-13.6-8.6-29.6-15-47.7-19.1c-18.2-4.1-37.5-6.2-58-6.2
			c-20.2,0-39.5,2-58,5.9c-18.5,4-34.7,10.3-48.8,18.9c-14,8.6-25.3,19.9-33.7,33.8c-8.4,13.9-12.6,30.8-12.6,50.6
			c0,16.6,2.9,30.7,8.6,42.2c5.7,11.5,13.3,21.3,22.8,29.2c9.4,7.9,20.2,14.3,32.3,19.2c12.1,4.9,24.4,9,36.9,12.2
			c12.5,3.2,24.8,6,36.9,8.2c12.1,2.3,22.9,4.7,32.3,7.4c9.4,2.7,17,5.9,22.8,9.6c5.7,3.7,8.6,8.6,8.6,14.8c0,5.3-1.6,9.5-4.7,12.6
			c-3.1,3.1-7.1,5.3-11.9,6.8c-4.8,1.5-10,2.4-15.6,2.8c-5.7,0.4-11,0.6-16,0.6c-8.4,0-16-0.5-22.8-1.6c-6.8-1-12.6-3.1-17.3-6.3
			c-4.8-3.1-8.4-7.6-11-13.1c-2.6-5.6-3.9-13.2-3.9-22.2H75.3c0,24,4.3,44.3,12.8,60c8.6,15.7,20.4,28.2,35.5,37.3
			c15.1,9.1,32.9,15.5,53.5,19c20.6,3.5,42.8,5.3,66.7,5.3c21.5,0,41.4-2.2,59.7-6.7C321.8,342.1,337.7,335.1,351.2,325.5z"/>
		<polygon class="st1" points="848.3,5.6 720.9,5.6 596.2,346.6 663.2,346.6 720.8,346.6 733.5,310.6 759,310.6 759,222.6 
			733.5,222.6 784.5,90.5 835.5,222.6 811,222.6 811,310.6 835.5,310.6 848.2,346.6 899.5,346.6 972.7,346.6 		"/>
	</g>
</g>
</svg>
