<?xml version="1.0" encoding="utf-8"?>
<!-- Generator: Adobe Illustrator 19.1.0, SVG Export Plug-In . SVG Version: 6.00 Build 0)  -->
<svg version="1.1" id="Layer_1" xmlns="http://www.w3.org/2000/svg" xmlns:xlink="http://www.w3.org/1999/xlink" x="0px" y="0px"
	 viewBox="0 0 228.2 100" style="enable-background:new 0 0 228.2 100;" xml:space="preserve">
<style type="text/css">
	.st0{fill:#231F20;}
	.st1{fill:#F2623E;}
	.st2{fill:#00405D;}
</style>
<g>
	<g>
		<path class="st0" d="M24.6,99.6h-5.4L17.1,94H7.3l-2,5.6H0L9.6,75h5.2L24.6,99.6z M15.5,89.9l-3.4-9.1l-3.3,9.1H15.5z"/>
		<path class="st0" d="M26.9,99.6V75.2h5v20.2h12.3v4.1H26.9z"/>
		<path class="st0" d="M47.3,99.6V75.2h5v20.2h12.3v4.1H47.3z"/>
		<path class="st0" d="M74.7,99.6V75h5v24.6H74.7z"/>
		<path class="st0" d="M83.9,99.6V75h4.8l10.1,16.4V75h4.6v24.6h-5l-9.9-16v16H83.9z"/>
		<path class="st0" d="M115,87.5c0-2.5,0.4-4.6,1.1-6.3c0.6-1.3,1.3-2.4,2.3-3.4c1-1,2-1.7,3.2-2.2c1.5-0.6,3.3-1,5.3-1
			c3.6,0,6.5,1.1,8.7,3.4c2.2,2.2,3.3,5.4,3.3,9.4c0,4-1.1,7.1-3.2,9.3c-2.2,2.2-5,3.4-8.6,3.4c-3.7,0-6.6-1.1-8.7-3.3
			C116,94.4,115,91.4,115,87.5z M120.1,87.3c0,2.8,0.6,4.9,1.9,6.3c1.3,1.4,2.9,2.2,4.9,2.2s3.6-0.7,4.9-2.1s1.9-3.6,1.9-6.4
			c0-2.8-0.6-4.9-1.9-6.3c-1.2-1.4-2.9-2.1-4.9-2.1s-3.7,0.7-4.9,2.1C120.7,82.3,120.1,84.5,120.1,87.3z"/>
		<path class="st0" d="M142.2,99.6V75h4.8l10.1,16.4V75h4.6v24.6h-5l-9.9-16v16H142.2z"/>
		<path class="st0" d="M166.4,99.6V75h18.2v4.2h-13.3v5.4h12.3v4.1h-12.3v6.7h13.7v4.1H166.4z"/>
	</g>
	<g>
		<path class="st1" d="M226.8,14c-1-2.6-2.4-4.9-4.2-6.8c-1.8-1.9-4-3.6-6.5-4.7c-2.6-1.1-5.3-1.9-8.4-1.9h-37.4v16.9l18.7,49.1h2.3
			v-22h16.4c3.1,0,5.9-0.3,8.5-1.3c2.6-1.1,4.7-2.4,6.6-4.4c1.8-1.9,3.1-4.1,4.1-6.7c1-2.6,1.4-5.4,1.4-8.5v-1.2
			C228.2,19.5,227.8,16.6,226.8,14z M207.2,23.6c0,1.9-0.5,3.8-1.6,5c-1.1,1.2-2.7,2.1-4.9,2.1h-9.5v-14h9.5c2.3,0,3.9,0.5,5,1.7
			c1.1,1.1,1.6,2.6,1.6,4.6V23.6z"/>
		<path class="st2" d="M111.6,39c2.1-0.8,3.9-1.8,5.5-3c1.6-1.2,2.9-2.7,3.9-4.2c1-1.6,1.8-3.3,2.4-5.1c0.5-1.8,0.8-3.7,0.8-5.6
			c0-2.6-0.5-5.2-1.4-7.6c-0.9-2.4-2.3-4.5-4.2-6.4c-1.8-1.8-4.1-3.5-6.9-4.6c-2.7-1.1-5.9-1.9-9.5-1.9H65c0.4,0,0.8,0.7,1.2,0.9
			c3.1,1.9,5.4,4.5,7.2,7.5c1.9,3.1,2.8,6.8,2.8,10.9v4.6H62.9c0.2,0,0.5,0.2,0.7,0.3c2.6,1,5,2.3,7.1,4c2.2,1.7,4,3.9,5.4,6.4
			c1.4,2.6,2.1,5.7,2.2,9.3c0,4.6-0.9,8.7-2.5,12c-1.7,3.4-4.1,6.4-7.1,8.6c-0.6,0.4-1.3,1.5-1.9,1.5h17.5v-24H91l11.5,24h6.9
			l6.8-18.7L111.6,39z M102.4,24.4c-0.3,0.7-0.7,1.4-1.3,1.9c-0.5,0.5-1.2,1.3-1.9,1.6c-0.7,0.3-1.5,0.8-2.3,0.8H84.2v-12H97
			c0.8,0,1.6-0.2,2.3,0.1c0.7,0.3,1.3,0.5,1.9,1.1c0.5,0.5,1,1.1,1.3,1.8c0.3,0.7,0.5,1.5,0.5,2.4C102.9,22.9,102.7,23.6,102.4,24.4
			z"/>
		<path class="st2" d="M12.1,57.3c-1.9-3.5-4-7.9-4-13.1v-3.5h14v-1.2c-1-0.7-2.4-1.5-3.4-2.3c-2.2-1.8-4-4.1-5.3-6.7
			c-1.3-2.7-2-5.9-2-9.6c0-4.4,1.1-8.3,3-11.5c1.9-3.1,3.7-5.7,7.7-7.6v-1h-22v66h22v-0.5c0-0.1-1.1-0.2-1.3-0.3
			C17.4,63.7,14.1,60.9,12.1,57.3z"/>
		<path class="st2" d="M74.7,44.7c-0.1-3-0.7-5.6-1.8-7.6c-1.1-2.1-2.6-3.8-4.4-5.2c-1.8-1.4-3.9-2.6-6.2-3.4
			c-2.3-0.9-4.6-1.6-7-2.2c-2.4-0.6-4.7-1.1-7-1.5c-2.3-0.4-4.3-0.9-6.1-1.4c-1.8-0.5-3.2-1.1-4.3-1.9c-1.1-0.7-1.6-1.7-1.6-3
			c0-1.1,0.7-2.1,2.1-3c1.4-0.8,3.6-1.3,6.5-1.3c1.5,0,2.8,0.2,3.9,0.6c1.1,0.4,1.9,0.9,2.6,1.5c0.7,0.6,0.6,1.3,0.9,2.1
			c0.3,0.8-0.1,1.6-0.1,2.5v0.8h21v-1.6c0-3.5-1-6.5-2.5-9c-1.5-2.5-3.7-4.6-6.3-6.3c-2.6-1.6-5.7-2.9-9.1-3.6
			C51.8,0.4,48.1,0,44.2,0c-3.8,0-7.5,0.4-11.1,1.1c-3.5,0.8-6.6,2-9.3,3.6c-2.7,1.6-4.8,3.8-6.4,6.4C15.8,13.8,15,17,15,20.8
			c0,3.2,0.5,5.9,1.6,8.1c1.1,2.2,2.5,4.1,4.3,5.6c1.8,1.5,3.9,2.7,6.2,3.7c2.3,0.9,4.7,1.7,7,2.3c2.4,0.6,4.7,1.1,7,1.6
			c2.3,0.4,4.4,0.9,6.2,1.4c1.8,0.5,3.2,1.1,4.3,1.8c1.1,0.7,1.6,1.6,1.6,2.8c0,1-0.3,1.8-0.9,2.4c-0.6,0.6-1.4,1-2.3,1.3
			c-0.9,0.3-1.9,0.5-3,0.5c-1.1,0.1-2.1,0.1-3,0.1c-1.6,0-3-0.1-4.3-0.3c-1.3-0.2-2.4-0.6-3.3-1.2c-0.9-0.6-1.6-2.2-2.1-3.3
			c-0.5-1.1-0.7-2-0.7-5H13.9c0,7,0.8,9.2,2.4,12.2c1.6,3,3.9,5.8,6.8,7.5c2.9,1.7,6.3,3.1,10.2,3.8c3.9,0.7,8.2,1.1,12.7,1.1
			c4.1,0,7.9-0.4,11.4-1.2c3.5-0.8,6.5-2.2,9.1-4c2.6-1.8,4.6-4.2,6-7.1C74,52.1,74.7,48.7,74.7,44.7z"/>
		<polygon class="st1" points="161.3,0.7 137,0.7 113.3,66.7 126,66.7 137,66.7 139.8,59.7 143.2,59.7 143.2,42.7 139.4,42.7 
			149.2,17.5 158.9,42.7 152.2,42.7 152.2,59.7 157.8,59.7 160.6,66.7 171.1,66.7 185.1,66.7 		"/>
	</g>
</g>
</svg>
